# xmcd
#
# Track frame offsets:
#	150
#	14607
#	22115
#	38347
#	49882
#	67732
#	85385
#	98682
#	109852
#	115990
#	132502
#	143445
#	157975
#
# Disc length: 2330 seconds
#
# Revision: 0
# Processed by: cddbd v1.5.1PL0 Copyright (c) Steve Scherf et al.
# Submitted via: audiograbber 1.83.01
#
DISCID=a309180d
DTITLE="Angel Fiddle" KATHARINA - All My Love And More
DYEAR=1996
DGENRE=Country
TTITLE0=Thank God For The Radio
TTITLE1=Wild Horses
TTITLE2=Heartbreaker
TTITLE3=18 Wheels
TTITLE4=Wish You Were Here
TTITLE5=Country Roads
TTITLE6=Down At The Twist And Shout
TTITLE7=These Boots Are Made For Walking
TTITLE8=Jaybird
TTITLE9=Yellow Roses
TTITLE10=I'm Just Lonely
TTITLE11=To Know Him
TTITLE12=As Tears Go By
EXTD=
EXTT0=
EXTT1=
EXTT2=
EXTT3=
EXTT4=
EXTT5=
EXTT6=
EXTT7=
EXTT8=
EXTT9=
EXTT10=
EXTT11=
EXTT12=
PLAYORDER=
